<svg width="208" height="60" viewBox="0 0 208 60" fill="none" xmlns="http://www.w3.org/2000/svg">
<rect y="4.15414" width="5.53886" height="55.3886" rx="2.76943" fill="#F2C335"/>
<rect x="22.1554" y="4.15414" width="5.53886" height="55.3886" rx="2.76943" fill="#F2C335"/>
<rect x="44.3109" y="4.15414" width="5.53886" height="55.3886" rx="2.76943" fill="#F2C335"/>
<rect x="11.0778" width="5.53886" height="55.3886" rx="2.76943" fill="#024959"/>
<rect x="33.2332" width="5.53886" height="55.3886" rx="2.76943" fill="#024959"/>
<path d="M87.088 21.856V44H84.176V27.488L76.816 44H74.768L67.376 27.456V44H64.464V21.856H67.6L75.792 40.16L83.984 21.856H87.088ZM108.027 34.56C108.027 35.1147 107.995 35.7013 107.931 36.32H93.9145C94.0212 38.048 94.6078 39.4027 95.6745 40.384C96.7625 41.344 98.0745 41.824 99.6105 41.824C100.869 41.824 101.915 41.536 102.747 40.96C103.6 40.3627 104.197 39.5733 104.539 38.592H107.675C107.205 40.2773 106.267 41.6533 104.859 42.72C103.451 43.7653 101.701 44.288 99.6105 44.288C97.9465 44.288 96.4532 43.9147 95.1305 43.168C93.8292 42.4213 92.8052 41.3653 92.0585 40C91.3118 38.6133 90.9385 37.0133 90.9385 35.2C90.9385 33.3867 91.3012 31.7973 92.0265 30.432C92.7518 29.0667 93.7652 28.0213 95.0665 27.296C96.3892 26.5493 97.9038 26.176 99.6105 26.176C101.275 26.176 102.747 26.5387 104.027 27.264C105.307 27.9893 106.288 28.992 106.971 30.272C107.675 31.5307 108.027 32.96 108.027 34.56ZM105.019 33.952C105.019 32.8427 104.773 31.8933 104.283 31.104C103.792 30.2933 103.12 29.6853 102.267 29.28C101.435 28.8533 100.507 28.64 99.4825 28.64C98.0105 28.64 96.7518 29.1093 95.7065 30.048C94.6825 30.9867 94.0958 32.288 93.9465 33.952H105.019ZM121.022 44L116.862 37.472L112.862 44H109.822L115.486 35.296L109.822 26.464H113.118L117.278 32.96L121.246 26.464H124.286L118.654 35.136L124.318 44H121.022ZM126.095 35.168C126.095 33.376 126.457 31.808 127.183 30.464C127.908 29.0987 128.9 28.0427 130.159 27.296C131.439 26.5493 132.857 26.176 134.415 26.176C135.951 26.176 137.284 26.5067 138.415 27.168C139.545 27.8293 140.388 28.6613 140.943 29.664V26.464H143.887V44H140.943V40.736C140.367 41.76 139.503 42.6133 138.351 43.296C137.22 43.9573 135.897 44.288 134.383 44.288C132.825 44.288 131.417 43.904 130.159 43.136C128.9 42.368 127.908 41.2907 127.183 39.904C126.457 38.5173 126.095 36.9387 126.095 35.168ZM140.943 35.2C140.943 33.8773 140.676 32.7253 140.143 31.744C139.609 30.7627 138.884 30.016 137.967 29.504C137.071 28.9707 136.079 28.704 134.991 28.704C133.903 28.704 132.911 28.96 132.015 29.472C131.119 29.984 130.404 30.7307 129.871 31.712C129.337 32.6933 129.071 33.8453 129.071 35.168C129.071 36.512 129.337 37.6853 129.871 38.688C130.404 39.6693 131.119 40.4267 132.015 40.96C132.911 41.472 133.903 41.728 134.991 41.728C136.079 41.728 137.071 41.472 137.967 40.96C138.884 40.4267 139.609 39.6693 140.143 38.688C140.676 37.6853 140.943 36.5227 140.943 35.2ZM160.968 31.04V33.504H148.2V31.04H160.968ZM172.641 44.288C171.297 44.288 170.091 44.064 169.025 43.616C167.958 43.1467 167.115 42.5067 166.497 41.696C165.878 40.864 165.537 39.9147 165.473 38.848H168.481C168.566 39.7227 168.971 40.4373 169.697 40.992C170.443 41.5467 171.414 41.824 172.609 41.824C173.718 41.824 174.593 41.5787 175.233 41.088C175.873 40.5973 176.193 39.9787 176.193 39.232C176.193 38.464 175.851 37.8987 175.169 37.536C174.486 37.152 173.43 36.7787 172.001 36.416C170.699 36.0747 169.633 35.7333 168.801 35.392C167.99 35.0293 167.286 34.5067 166.689 33.824C166.113 33.12 165.825 32.2027 165.825 31.072C165.825 30.176 166.091 29.3547 166.625 28.608C167.158 27.8613 167.915 27.2747 168.897 26.848C169.878 26.4 170.998 26.176 172.257 26.176C174.198 26.176 175.766 26.6667 176.961 27.648C178.155 28.6293 178.795 29.9733 178.881 31.68H175.969C175.905 30.7627 175.531 30.0267 174.849 29.472C174.187 28.9173 173.291 28.64 172.161 28.64C171.115 28.64 170.283 28.864 169.665 29.312C169.046 29.76 168.737 30.3467 168.737 31.072C168.737 31.648 168.918 32.128 169.281 32.512C169.665 32.8747 170.134 33.1733 170.689 33.408C171.265 33.6213 172.054 33.8667 173.057 34.144C174.315 34.4853 175.339 34.8267 176.129 35.168C176.918 35.488 177.59 35.9787 178.145 36.64C178.721 37.3013 179.019 38.1653 179.041 39.232C179.041 40.192 178.774 41.056 178.241 41.824C177.707 42.592 176.95 43.2 175.969 43.648C175.009 44.0747 173.899 44.288 172.641 44.288ZM199.152 34.56C199.152 35.1147 199.12 35.7013 199.056 36.32H185.04C185.146 38.048 185.733 39.4027 186.8 40.384C187.888 41.344 189.2 41.824 190.736 41.824C191.994 41.824 193.04 41.536 193.872 40.96C194.725 40.3627 195.322 39.5733 195.664 38.592H198.8C198.33 40.2773 197.392 41.6533 195.984 42.72C194.576 43.7653 192.826 44.288 190.736 44.288C189.072 44.288 187.578 43.9147 186.256 43.168C184.954 42.4213 183.93 41.3653 183.184 40C182.437 38.6133 182.064 37.0133 182.064 35.2C182.064 33.3867 182.426 31.7973 183.152 30.432C183.877 29.0667 184.89 28.0213 186.192 27.296C187.514 26.5493 189.029 26.176 190.736 26.176C192.4 26.176 193.872 26.5387 195.152 27.264C196.432 27.9893 197.413 28.992 198.096 30.272C198.8 31.5307 199.152 32.96 199.152 34.56ZM196.144 33.952C196.144 32.8427 195.898 31.8933 195.408 31.104C194.917 30.2933 194.245 29.6853 193.392 29.28C192.56 28.8533 191.632 28.64 190.608 28.64C189.136 28.64 187.877 29.1093 186.832 30.048C185.808 30.9867 185.221 32.288 185.072 33.952H196.144ZM206.771 21.696L206.419 37.696H203.987L203.635 21.696H206.771ZM205.331 44.192C204.777 44.192 204.307 44 203.923 43.616C203.539 43.232 203.347 42.7627 203.347 42.208C203.347 41.6533 203.539 41.184 203.923 40.8C204.307 40.416 204.777 40.224 205.331 40.224C205.865 40.224 206.313 40.416 206.675 40.8C207.059 41.184 207.251 41.6533 207.251 42.208C207.251 42.7627 207.059 43.232 206.675 43.616C206.313 44 205.865 44.192 205.331 44.192Z" fill="black"/>
</svg>
